<mxfile host="app.diagrams.net" modified="2021-08-11T03:24:35.459Z" agent="5.0 (Windows NT 10.0; Win64; x64) AppleWebKit/537.36 (KHTML, like Gecko) Chrome/92.0.4515.107 Safari/537.36" etag="e0qSczL3PfX_gMxcjHEi" version="14.9.3" type="github">
  <diagram id="CWudQBqjWAvmTpPXx18b" name="Page-1">
    <mxGraphModel dx="1422" dy="762" grid="0" gridSize="10" guides="1" tooltips="1" connect="1" arrows="1" fold="1" page="1" pageScale="1" pageWidth="850" pageHeight="1100" math="0" shadow="0">
      <root>
        <mxCell id="0" />
        <mxCell id="1" parent="0" />
        <mxCell id="oEOo0oB5LW9IeuOJ4y_0-12" style="edgeStyle=orthogonalEdgeStyle;rounded=0;orthogonalLoop=1;jettySize=auto;html=1;" parent="1" source="oEOo0oB5LW9IeuOJ4y_0-1" target="oEOo0oB5LW9IeuOJ4y_0-2" edge="1">
          <mxGeometry relative="1" as="geometry">
            <Array as="points">
              <mxPoint x="200" y="140" />
            </Array>
          </mxGeometry>
        </mxCell>
        <mxCell id="oEOo0oB5LW9IeuOJ4y_0-1" value="FiberRoot" style="rounded=0;whiteSpace=wrap;html=1;" parent="1" vertex="1">
          <mxGeometry x="40" y="120" width="80" height="40" as="geometry" />
        </mxCell>
        <mxCell id="oEOo0oB5LW9IeuOJ4y_0-13" style="edgeStyle=orthogonalEdgeStyle;rounded=0;orthogonalLoop=1;jettySize=auto;html=1;" parent="1" source="oEOo0oB5LW9IeuOJ4y_0-2" target="oEOo0oB5LW9IeuOJ4y_0-3" edge="1">
          <mxGeometry relative="1" as="geometry">
            <Array as="points">
              <mxPoint x="320" y="180" />
            </Array>
          </mxGeometry>
        </mxCell>
        <mxCell id="oEOo0oB5LW9IeuOJ4y_0-30" style="edgeStyle=orthogonalEdgeStyle;rounded=0;orthogonalLoop=1;jettySize=auto;html=1;entryX=0.5;entryY=1;entryDx=0;entryDy=0;" parent="1" source="oEOo0oB5LW9IeuOJ4y_0-2" target="oEOo0oB5LW9IeuOJ4y_0-1" edge="1">
          <mxGeometry relative="1" as="geometry" />
        </mxCell>
        <mxCell id="oEOo0oB5LW9IeuOJ4y_0-2" value="ClickCounter&lt;br&gt;(0)" style="rounded=0;whiteSpace=wrap;html=1;fillColor=#e51400;strokeColor=#B20000;fontColor=#ffffff;" parent="1" vertex="1">
          <mxGeometry x="160" y="160" width="80" height="40" as="geometry" />
        </mxCell>
        <mxCell id="oEOo0oB5LW9IeuOJ4y_0-14" style="edgeStyle=orthogonalEdgeStyle;rounded=0;orthogonalLoop=1;jettySize=auto;html=1;entryX=0.5;entryY=0;entryDx=0;entryDy=0;" parent="1" source="oEOo0oB5LW9IeuOJ4y_0-3" target="oEOo0oB5LW9IeuOJ4y_0-8" edge="1">
          <mxGeometry relative="1" as="geometry" />
        </mxCell>
        <mxCell id="oEOo0oB5LW9IeuOJ4y_0-17" style="edgeStyle=orthogonalEdgeStyle;rounded=0;orthogonalLoop=1;jettySize=auto;html=1;" parent="1" source="oEOo0oB5LW9IeuOJ4y_0-3" target="oEOo0oB5LW9IeuOJ4y_0-4" edge="1">
          <mxGeometry relative="1" as="geometry" />
        </mxCell>
        <mxCell id="oEOo0oB5LW9IeuOJ4y_0-25" style="edgeStyle=orthogonalEdgeStyle;rounded=0;orthogonalLoop=1;jettySize=auto;html=1;entryX=0.5;entryY=1;entryDx=0;entryDy=0;" parent="1" source="oEOo0oB5LW9IeuOJ4y_0-3" target="oEOo0oB5LW9IeuOJ4y_0-2" edge="1">
          <mxGeometry relative="1" as="geometry" />
        </mxCell>
        <mxCell id="oEOo0oB5LW9IeuOJ4y_0-3" value="ClickWrapper&lt;br&gt;(1)" style="rounded=0;whiteSpace=wrap;html=1;fillColor=#e51400;strokeColor=#B20000;fontColor=#ffffff;" parent="1" vertex="1">
          <mxGeometry x="280" y="200" width="80" height="40" as="geometry" />
        </mxCell>
        <mxCell id="oEOo0oB5LW9IeuOJ4y_0-18" style="edgeStyle=orthogonalEdgeStyle;rounded=0;orthogonalLoop=1;jettySize=auto;html=1;entryX=0.5;entryY=0;entryDx=0;entryDy=0;" parent="1" source="oEOo0oB5LW9IeuOJ4y_0-4" target="oEOo0oB5LW9IeuOJ4y_0-9" edge="1">
          <mxGeometry relative="1" as="geometry" />
        </mxCell>
        <mxCell id="oEOo0oB5LW9IeuOJ4y_0-26" style="edgeStyle=orthogonalEdgeStyle;rounded=0;orthogonalLoop=1;jettySize=auto;html=1;" parent="1" source="oEOo0oB5LW9IeuOJ4y_0-4" target="oEOo0oB5LW9IeuOJ4y_0-2" edge="1">
          <mxGeometry relative="1" as="geometry">
            <mxPoint x="190" y="280" as="targetPoint" />
          </mxGeometry>
        </mxCell>
        <mxCell id="oEOo0oB5LW9IeuOJ4y_0-4" value="CountWrapper&lt;br&gt;(2)" style="rounded=0;whiteSpace=wrap;html=1;fillColor=#e51400;strokeColor=#B20000;fontColor=#ffffff;" parent="1" vertex="1">
          <mxGeometry x="270" y="360" width="100" height="40" as="geometry" />
        </mxCell>
        <mxCell id="oEOo0oB5LW9IeuOJ4y_0-16" style="edgeStyle=orthogonalEdgeStyle;rounded=0;orthogonalLoop=1;jettySize=auto;html=1;entryX=0.5;entryY=0;entryDx=0;entryDy=0;" parent="1" source="oEOo0oB5LW9IeuOJ4y_0-5" target="oEOo0oB5LW9IeuOJ4y_0-10" edge="1">
          <mxGeometry relative="1" as="geometry" />
        </mxCell>
        <mxCell id="oEOo0oB5LW9IeuOJ4y_0-22" style="edgeStyle=orthogonalEdgeStyle;rounded=0;orthogonalLoop=1;jettySize=auto;html=1;entryX=0.5;entryY=1;entryDx=0;entryDy=0;" parent="1" source="oEOo0oB5LW9IeuOJ4y_0-5" target="oEOo0oB5LW9IeuOJ4y_0-8" edge="1">
          <mxGeometry relative="1" as="geometry" />
        </mxCell>
        <mxCell id="oEOo0oB5LW9IeuOJ4y_0-5" value="Clicker&lt;br&gt;(111)" style="rounded=0;whiteSpace=wrap;html=1;strokeColor=#B20000;fontColor=#ffffff;fillColor=#e51400;" parent="1" vertex="1">
          <mxGeometry x="520" y="280" width="80" height="40" as="geometry" />
        </mxCell>
        <mxCell id="oEOo0oB5LW9IeuOJ4y_0-20" style="edgeStyle=orthogonalEdgeStyle;rounded=0;orthogonalLoop=1;jettySize=auto;html=1;entryX=0.5;entryY=0;entryDx=0;entryDy=0;" parent="1" source="oEOo0oB5LW9IeuOJ4y_0-6" target="oEOo0oB5LW9IeuOJ4y_0-11" edge="1">
          <mxGeometry relative="1" as="geometry" />
        </mxCell>
        <mxCell id="oEOo0oB5LW9IeuOJ4y_0-28" style="edgeStyle=orthogonalEdgeStyle;rounded=0;orthogonalLoop=1;jettySize=auto;html=1;entryX=0.5;entryY=1;entryDx=0;entryDy=0;" parent="1" source="oEOo0oB5LW9IeuOJ4y_0-6" target="oEOo0oB5LW9IeuOJ4y_0-9" edge="1">
          <mxGeometry relative="1" as="geometry" />
        </mxCell>
        <mxCell id="oEOo0oB5LW9IeuOJ4y_0-6" value="Counter&lt;br&gt;(211)" style="rounded=0;whiteSpace=wrap;html=1;fillColor=#e51400;strokeColor=#B20000;fontColor=#ffffff;" parent="1" vertex="1">
          <mxGeometry x="520" y="440" width="80" height="40" as="geometry" />
        </mxCell>
        <mxCell id="oEOo0oB5LW9IeuOJ4y_0-15" style="edgeStyle=orthogonalEdgeStyle;rounded=0;orthogonalLoop=1;jettySize=auto;html=1;entryX=0.5;entryY=0;entryDx=0;entryDy=0;" parent="1" source="oEOo0oB5LW9IeuOJ4y_0-8" target="oEOo0oB5LW9IeuOJ4y_0-5" edge="1">
          <mxGeometry relative="1" as="geometry" />
        </mxCell>
        <mxCell id="oEOo0oB5LW9IeuOJ4y_0-24" style="edgeStyle=orthogonalEdgeStyle;rounded=0;orthogonalLoop=1;jettySize=auto;html=1;entryX=0.75;entryY=1;entryDx=0;entryDy=0;" parent="1" source="oEOo0oB5LW9IeuOJ4y_0-8" target="oEOo0oB5LW9IeuOJ4y_0-3" edge="1">
          <mxGeometry relative="1" as="geometry" />
        </mxCell>
        <mxCell id="oEOo0oB5LW9IeuOJ4y_0-8" value="div&lt;br&gt;(11)" style="rounded=0;whiteSpace=wrap;html=1;" parent="1" vertex="1">
          <mxGeometry x="400" y="240" width="80" height="40" as="geometry" />
        </mxCell>
        <mxCell id="oEOo0oB5LW9IeuOJ4y_0-19" style="edgeStyle=orthogonalEdgeStyle;rounded=0;orthogonalLoop=1;jettySize=auto;html=1;entryX=0.5;entryY=0;entryDx=0;entryDy=0;" parent="1" source="oEOo0oB5LW9IeuOJ4y_0-9" target="oEOo0oB5LW9IeuOJ4y_0-6" edge="1">
          <mxGeometry relative="1" as="geometry" />
        </mxCell>
        <mxCell id="oEOo0oB5LW9IeuOJ4y_0-29" style="edgeStyle=orthogonalEdgeStyle;rounded=0;orthogonalLoop=1;jettySize=auto;html=1;entryX=0.5;entryY=1;entryDx=0;entryDy=0;" parent="1" source="oEOo0oB5LW9IeuOJ4y_0-9" target="oEOo0oB5LW9IeuOJ4y_0-4" edge="1">
          <mxGeometry relative="1" as="geometry" />
        </mxCell>
        <mxCell id="oEOo0oB5LW9IeuOJ4y_0-9" value="div&lt;br&gt;(21)" style="rounded=0;whiteSpace=wrap;html=1;" parent="1" vertex="1">
          <mxGeometry x="400" y="400" width="80" height="40" as="geometry" />
        </mxCell>
        <mxCell id="oEOo0oB5LW9IeuOJ4y_0-21" style="edgeStyle=orthogonalEdgeStyle;rounded=0;orthogonalLoop=1;jettySize=auto;html=1;entryX=0.5;entryY=1;entryDx=0;entryDy=0;" parent="1" source="oEOo0oB5LW9IeuOJ4y_0-10" target="oEOo0oB5LW9IeuOJ4y_0-5" edge="1">
          <mxGeometry relative="1" as="geometry" />
        </mxCell>
        <mxCell id="oEOo0oB5LW9IeuOJ4y_0-10" value="button&lt;br&gt;(1111)" style="rounded=0;whiteSpace=wrap;html=1;" parent="1" vertex="1">
          <mxGeometry x="640" y="320" width="80" height="40" as="geometry" />
        </mxCell>
        <mxCell id="oEOo0oB5LW9IeuOJ4y_0-27" style="edgeStyle=orthogonalEdgeStyle;rounded=0;orthogonalLoop=1;jettySize=auto;html=1;entryX=0.5;entryY=1;entryDx=0;entryDy=0;" parent="1" source="oEOo0oB5LW9IeuOJ4y_0-11" target="oEOo0oB5LW9IeuOJ4y_0-6" edge="1">
          <mxGeometry relative="1" as="geometry" />
        </mxCell>
        <mxCell id="oEOo0oB5LW9IeuOJ4y_0-11" value="span&lt;br&gt;(2111)" style="rounded=0;whiteSpace=wrap;html=1;" parent="1" vertex="1">
          <mxGeometry x="640" y="480" width="80" height="40" as="geometry" />
        </mxCell>
        <mxCell id="oEOo0oB5LW9IeuOJ4y_0-32" value="" style="curved=1;endArrow=classic;html=1;exitX=1;exitY=0;exitDx=0;exitDy=0;entryX=1;entryY=0;entryDx=0;entryDy=0;fillColor=#e51400;strokeColor=#FF0000;strokeWidth=2;" parent="1" source="oEOo0oB5LW9IeuOJ4y_0-5" target="oEOo0oB5LW9IeuOJ4y_0-3" edge="1">
          <mxGeometry width="50" height="50" relative="1" as="geometry">
            <mxPoint x="509" y="196" as="sourcePoint" />
            <mxPoint x="559" y="146" as="targetPoint" />
            <Array as="points">
              <mxPoint x="628" y="229" />
              <mxPoint x="579" y="165" />
              <mxPoint x="506" y="149" />
              <mxPoint x="425" y="165" />
            </Array>
          </mxGeometry>
        </mxCell>
        <mxCell id="oEOo0oB5LW9IeuOJ4y_0-33" value="" style="curved=1;endArrow=classic;html=1;exitX=0;exitY=1;exitDx=0;exitDy=0;entryX=1;entryY=0;entryDx=0;entryDy=0;fillColor=#e51400;strokeWidth=2;strokeColor=#FF0000;" parent="1" source="oEOo0oB5LW9IeuOJ4y_0-3" target="oEOo0oB5LW9IeuOJ4y_0-6" edge="1">
          <mxGeometry width="50" height="50" relative="1" as="geometry">
            <mxPoint x="448" y="373" as="sourcePoint" />
            <mxPoint x="498" y="323" as="targetPoint" />
            <Array as="points">
              <mxPoint x="210" y="284" />
              <mxPoint x="377" y="330" />
              <mxPoint x="671" y="380" />
            </Array>
          </mxGeometry>
        </mxCell>
        <mxCell id="oEOo0oB5LW9IeuOJ4y_0-34" value="" style="curved=1;endArrow=classic;html=1;exitX=0;exitY=1;exitDx=0;exitDy=0;entryX=0.5;entryY=1;entryDx=0;entryDy=0;strokeColor=#FF0000;strokeWidth=2;" parent="1" source="oEOo0oB5LW9IeuOJ4y_0-6" target="oEOo0oB5LW9IeuOJ4y_0-4" edge="1">
          <mxGeometry width="50" height="50" relative="1" as="geometry">
            <mxPoint x="369" y="530" as="sourcePoint" />
            <mxPoint x="419" y="480" as="targetPoint" />
            <Array as="points">
              <mxPoint x="466" y="522" />
              <mxPoint x="372" y="522" />
              <mxPoint x="320" y="480" />
            </Array>
          </mxGeometry>
        </mxCell>
        <mxCell id="oEOo0oB5LW9IeuOJ4y_0-35" value="" style="curved=1;endArrow=classic;html=1;exitX=0;exitY=1;exitDx=0;exitDy=0;entryX=0;entryY=1;entryDx=0;entryDy=0;strokeColor=#FF0000;strokeWidth=2;" parent="1" source="oEOo0oB5LW9IeuOJ4y_0-4" target="oEOo0oB5LW9IeuOJ4y_0-2" edge="1">
          <mxGeometry width="50" height="50" relative="1" as="geometry">
            <mxPoint x="108" y="485" as="sourcePoint" />
            <mxPoint x="158" y="435" as="targetPoint" />
            <Array as="points">
              <mxPoint x="160" y="474" />
              <mxPoint x="47" y="328" />
            </Array>
          </mxGeometry>
        </mxCell>
        <mxCell id="oEOo0oB5LW9IeuOJ4y_0-37" value="" style="curved=1;endArrow=classic;html=1;strokeWidth=1;exitX=1;exitY=0;exitDx=0;exitDy=0;entryX=1;entryY=0;entryDx=0;entryDy=0;" parent="1" source="oEOo0oB5LW9IeuOJ4y_0-1" target="oEOo0oB5LW9IeuOJ4y_0-5" edge="1">
          <mxGeometry width="50" height="50" relative="1" as="geometry">
            <mxPoint x="358" y="85" as="sourcePoint" />
            <mxPoint x="408" y="35" as="targetPoint" />
            <Array as="points">
              <mxPoint x="286" y="38" />
              <mxPoint x="775" y="134" />
            </Array>
          </mxGeometry>
        </mxCell>
        <mxCell id="oEOo0oB5LW9IeuOJ4y_0-38" value="firstEffect" style="edgeLabel;html=1;align=center;verticalAlign=middle;resizable=0;points=[];fontSize=11;fontStyle=1" parent="oEOo0oB5LW9IeuOJ4y_0-37" vertex="1" connectable="0">
          <mxGeometry x="-0.4925" y="-15" relative="1" as="geometry">
            <mxPoint as="offset" />
          </mxGeometry>
        </mxCell>
      </root>
    </mxGraphModel>
  </diagram>
</mxfile>
